<svg width="0" height="0" class="hidden">
  <symbol xmlns="http://www.w3.org/2000/svg" viewBox="0 0 512 512" id="instagram">
    <path fill-rule="evenodd" clip-rule="evenodd" fill="#444" d="M384.004 80.011v31.984c0 8.844 7.172 16 16.001 16h32.001c8.828 0 16.008 7.176 16.008 16.004 0 8.844-7.18 16.004-16.008 16.004h-40.002c-20.977 0-38.017-16.219-39.688-36.777-.086-1.078-.32-2.117-.32-3.23V80.011c0-8.848 7.18-16.004 16-16.004 8.844 0 16.008 7.157 16.008 16.004zM127.996 271.994c0-8.82 7.157-16 16-16 8.829 0 16 7.18 16 16 0 8.844-7.172 16.008-16 16.008-8.843 0-16-7.164-16-16.008zM256 384.009c-34.782 0-66.252-13.898-89.323-36.414-3.57-2.93-5.921-7.344-5.921-12.344 0-8.828 7.164-15.999 15.984-15.999 4.43 0 8.414 1.789 11.321 4.694l.055-.055C205.484 341.282 229.484 352 256.001 352c48.416 0 88.314-35.858 94.917-82.444l.125.016c1.383-8.648 9.406-14.656 18.102-13.398 8.743 1.273 14.806 9.383 13.548 18.141-.125.844-.359 1.641-.609 2.438-9.939 60.81-62.473 107.256-126.084 107.256zm239.999-96.007c-8.828 0-15.984-7.164-15.984-16.008 0-8.82 7.156-16 15.984-16 8.845 0 16.001 7.18 16.001 16 0 8.844-7.156 16.008-16.001 16.008zM416.005 512H95.995C42.985 512 0 469.023 0 415.993V255.994c0-35.339 28.649-63.992 63.986-63.992h64.009c10.477 0 19.79-5.039 25.642-12.844.141-.18.32-.285.484-.43 23.352-30.8 60.236-50.734 101.878-50.734 41.635 0 78.525 19.934 101.878 50.734.164.145.344.25.484.43 5.852 7.805 15.165 12.844 25.642 12.844h64.01c17.664 0 32.001-14.332 32.001-32V96.011c0-35.359-28.665-64.007-64.01-64.007H95.995c-35.345 0-63.994 28.648-63.994 64.007v47.988c0 8.844-7.172 16.004-16 16.004-8.844 0-16-7.16-16-16.004V96.011C0 42.984 42.985 0 95.995 0h320.01C469.014 0 512 42.984 512 96.011v63.992c0 35.339-28.649 64.003-63.986 64.003h-64.01c-20.923 0-39.486-10.042-51.166-25.562-.094-.125-.219-.145-.305-.25-17.492-23.195-45.228-38.191-76.533-38.191-31.29 0-59.064 14.996-76.534 38.191-.094.105-.219.125-.305.25-11.665 15.52-30.243 25.562-51.166 25.562h-64.01C46.32 224.006 32 238.322 32 255.994v159.999C32.001 451.352 60.65 480 95.995 480h320.01c35.345 0 64.01-28.648 64.01-64.007v-79.992c0-8.844 7.156-15.999 15.984-15.999 8.845 0 16.001 7.155 16.001 15.999v79.992c0 53.03-42.986 96.007-95.995 96.007z"></path>
  </symbol>
  <symbol xmlns="http://www.w3.org/2000/svg" viewBox="0 0 512 512" id="linkedin">
    <path fill-rule="evenodd" clip-rule="evenodd" fill="#469EC8" d="M472 480h-79.991c-19.375 0-35.523-13.758-39.211-32.04-.273 0-.523.039-.797.039V303.205c0-17.242-14.328-31.196-31.999-31.196-17.672 0-32 13.954-32 31.196v136.81c0 9.758-3.648 18.547-9.438 25.508-3.18 4.813-8.609 7.985-14.805 7.985-9.812 0-17.758-7.946-17.758-17.759 0-5.188 2.258-9.812 5.828-13.062 2.586-2.852 4.18-6.547 4.18-10.673V301.713c0-34.079 28.648-61.713 63.992-61.713 35.343 0 64.007 27.634 64.007 61.713v107.426c0 1.148-.109 2.141-.18 3.195.055-.016.125-.016.18-.039v19.719c0 8.829 7.156 15.985 16 15.985H464c8.844 0 16-7.156 16-15.985V288.01c0-1.203-.141-2.352-.391-3.478-4.109-69.486-59.592-124.542-127.608-124.542-28.234 0-54.233 9.578-75.358 25.657-.078-.039-.164-.023-.328.102a12.409 12.409 0 01-7.812 2.75c-6.914 0-12.492-5.602-12.492-12.508 0-.859-.051-1.305-.141-1.43-.738-8.149-7.52-14.571-15.859-14.571h-48.007c-17.668 0-32.003 14.336-32.003 32.009v240.015c0 1.438.254 2.821.609 4.142a12.3 12.3 0 00-.609 3.859c0 22.086-17.902 39.985-40.004 39.985H40.003C17.922 480 0 462.101 0 440.015V167.99c0-22.086 17.922-39.985 40.003-39.985h40.004c26.496 0 47.988-21.493 47.988-48.01 0-26.516-21.492-48.009-47.988-48.009-26.512 0-48.003 21.493-48.003 48.009 0 8.844-7.156 16-16.004 16-8.824 0-16-7.156-16-16C0 35.806 35.824 0 80.007 0c44.187 0 79.992 35.806 79.992 79.995 0 4.055-.395 8-.984 11.899-.129.75-.199 1.523-.344 2.273-.699 3.891-1.648 7.719-2.906 11.391-.051.18-.141.344-.195.523a80.061 80.061 0 01-11.66 21.907c-14.586 19.391-37.746 32.001-63.902 32.001H48.003c-8.844 0-16 7.18-16 16v256.023c0 8.829 7.156 15.985 16 15.985h80.8a40.365 40.365 0 01-.809-7.984V191.999c0-35.345 28.668-63.994 64.007-63.994h56.007c9.883 0 18.867 3.641 25.836 9.617.086.055.172-.039.266.031a15.859 15.859 0 0010.391 3.844c2.188 0 4.266-.43 6.148-1.227.57-.25.914-.211 1.242-.172 18.578-7.609 38.78-12.094 60.108-12.094 82.938 0 151.124 63.111 159.194 143.911a40.01 40.01 0 01.805 8.094v160.006C512 462.101 494.102 480 472 480zm-263.994-32.001c8.824 0 16 7.172 16 16 0 8.845-7.175 16.001-16 16.001-8.844 0-16.004-7.156-16.004-16.001 0-8.828 7.161-16 16.004-16z"></path>
  </symbol>
  <symbol xmlns="http://www.w3.org/2000/svg" viewBox="0 0 512 512" id="twitter">
    <path fill-rule="evenodd" clip-rule="evenodd" fill="#00ACED" d="M512 107.867c0 7.031-2.203 13.527-5.977 18.836-10.062 15.051-23.727 25.977-37.367 37.422a15.803 15.803 0 00-4.805 10.531c-1.523 69.156-27.141 148.246-72.78 200.512-54.586 62.49-129 104.881-215.078 104.881-8.824 0-16-7.172-16-16 0-8.844 7.176-16 16-16 158.555 0 244.944-138.6 255.007-256.924.469-1.652.758-3.785.758-6.816 0-1.008.016-2.012.07-2.996.789-13.796 6.961-26.156 16.43-35.019.469-.449.828-.859 1.172-1.273 11.555-11.375 22.211-24.668 30.461-37.152-11.719 5.258-24.078 9.238-36.922 11.93-2.148 0-3.961-1.812-3.961-4a3.98 3.98 0 011.164-2.816c.031-.035-.109.016-.125.016 12.609-11.012 22.281-25.402 27.484-41.816-8.469 5.059-17.406 9.418-26.68 13.098-5.992 2.387-12.5 3.766-19.359 3.766-10.672 0-20.593-3.211-28.843-8.719-.32-.215-.648-.359-.969-.555-13.672-9.184-29.617-14.711-47.68-14.711l-1.883.34c-39.742 0-69.945 22.406-81.234 56.707-.317.147-3.551 14.406-3.875 16.453-2.996 19.121-19.535 33.742-39.504 33.742a37.59 37.59 0 01-6.387-.539c-52.472-9.812-99.847-32.504-135.207-69.406-.215-.18-.379-.234-.684-.539-4.68-4.684-12.27-4.684-16.969 0a12.307 12.307 0 00-2.531 3.73c-.141.344-.23.344-.34.414-4.27 9.867-7.391 20.539-7.391 31.09 0 21.832 8.879 41.761 22.227 57.601 0 .02-.16-.07-.09 0a8.005 8.005 0 011.867 5.148c0 4.414-3.59 8-8.004 8-.879 0-1.703-.23-2.492-.5a15.06 15.06 0 00-.375-.16c-.145.051-.305.125-.559 0a7.903 7.903 0 00-3.566-.844c-4.344 0-7.859 3.516-7.969 7.82 4.164 28.469 21.637 53.676 45.227 68.458-.305-.031-.484-.031-.375.031a8.019 8.019 0 013.621 6.695c0 4.414-3.586 8-8 8-.09 0-.18-.016-.27-.016-.105-.023-.195-.055-.305-.07-.285-.039-.555-.094-.844-.125-2.152.109-3.84 1.812-3.84 3.961a3.8 3.8 0 00.395 1.742c6.512 16.219 17.527 30.078 31.395 40.219.164.125.199.234.395.375 1.184.844 2.297 1.812 3.375 2.875 10.922 10.922 10.922 28.648 0 39.594-3.355 3.328-7.34 5.664-11.555 6.953-.035.016-.016 0-.055.016-16.395 5.203-33.762 8.219-52.203 8.219h-9.992c-2.207 0-4 1.797-4 4 0 1.297.645 2.375 1.578 3.094 6.586 3.906 13.332 7.727 20.344 11.281l-.016.016c4.715 2.639 7.965 7.623 7.965 13.436 0 8.523-6.906 15.43-15.43 15.43-3.48 0-6.672-1.203-9.258-3.141-11.211-5.867-22.082-12.148-32.414-18.836-12.59-8.142-17.938-23.986-12.879-38.197 4.594-12.992 16.703-19.086 30.105-19.086 5.953.719 17.902 0 24 0 12.289 0 22.355-2.531 33.996-5.344-17.473-14.82-30.965-34.555-38.266-57.57a32.619 32.619 0 01-.645-17.398c-20.648-22.531-35.089-55.293-35.089-87.672.16-8.02 5.273-14.711 10.496-20.434-5.059-13.761-10.496-28.433-10.496-43.574 0-22.137 8.558-43.969 19.554-63.004 5.309-9.184 17.957-16.164 28.449-16.988 9.598 0 18.031 5.273 24.148 12.844 30.176 37.352 77.406 57.426 123.871 68.906.789.141 1.633.25 2.477.25 7.625 0 13.938-5.293 15.59-12.434C242.817 71.844 284.563 32 342.118 32c24.344 0 48.078 7.34 68.147 20.633 3.125 1.973 6.766 3.176 10.727 3.176 1.758 0 3.445-.289 5.039-.719 8.672-3.23 17.117-6.98 25.117-11.785 5.078-3.035 10.727-3.266 16.359-3.266 7.109 0 14.195 1.129 20.008 5.793 10.422 8.379 14.633 22.391 10.562 35.199 0 .035-.016.07-.016.105A32.493 32.493 0 01512 107.867zM31.998 368.043c-1.258-.141 1.253 0 0 0zm32-311.984c-.825 0 .828-.075 0 0zm56.007 383.99c8.828 0 16.004 7.156 16.004 16 0 8.828-7.176 16-16.004 16-8.844 0-16-7.172-16-16 0-8.844 7.157-16 16-16z"></path>
  </symbol>
  <symbol xmlns="http://www.w3.org/2000/svg" viewBox="0 0 512 512" id="facebook">
    <path fill-rule="evenodd" clip-rule="evenodd" fill="#3B5998" d="M448 512h-87.999c-22.094 0-39.999-17.922-39.999-40V360.001c0-22.094 17.905-39.999 39.999-39.999h12.922c8.32 0 16.844-6.656 19.062-15.031l8.484-31.953c2.484-9.312-2.812-17.023-11.852-17.023H360c-22.094 0-39.999-17.902-39.999-39.988v-16C320.001 177.905 337.906 160 360 160h24.008c8.82 0 16-7.156 16-16v-32.004c0-8.828-7.18-16.004-16-16.004H336c-44.187 0-79.991 35.828-79.991 80.011v40.004c0 22.085-17.922 39.988-40.003 39.988h-7.625c-9.039 0-16.379 7.711-16.379 17.023v31.953c0 8.375 6.746 15.031 15.07 15.031h8.934c22.082 0 40.003 17.905 40.003 39.999V472c0 22.078-17.922 40-40.003 40h-8c-8.844 0-16.004-7.172-16.004-16 0-8.844 7.16-16 16.004-16 8.824 0 16-7.172 16-16v-95.999c0-8.844-7.175-16-16-16H197.51c-20.719 0-37.511-16.578-37.511-37.577v-47.922c0-23.156 18.371-42.512 41.027-42.512h6.98c8.824 0 16-7.16 16-15.984v-40.004c0-57.441 46.559-103.995 103.995-103.995h64.008c22.086 0 39.984 17.902 39.984 39.988v48.004c0 22.085-17.898 40.003-39.984 40.003h-40.008v16.004c0 8.824 7.156 15.984 16 15.984h29.969c22.672 0 37.398 19.355 33.062 42.512l-8.992 47.922c-3.93 20.999-23.82 37.577-44.539 37.577h-9.5c-8.844 0-16 7.156-16 16V464c0 8.828 7.156 16 16 16H448c17.672 0 32-14.328 32-32V64.007c0-17.688-14.328-32.003-32-32.003H64.007c-17.672 0-32.003 14.316-32.003 32.003V448c0 17.672 14.332 32 32.003 32h16c8.828 0 16.003 7.156 16.003 16 0 8.828-7.175 16-16.003 16h-16C28.668 512 0 483.344 0 448V64.007C0 28.648 28.668 0 64.007 0H448c35.359 0 64 28.648 64 64.007V448c0 35.344-28.641 64-64 64zm-304.001-32c8.844 0 16 7.156 16 16 0 8.828-7.156 16-16 16-8.828 0-16.004-7.172-16.004-16 0-8.844 7.176-16 16.004-16z"></path>
  </symbol>
  <symbol xmlns="http://www.w3.org/2000/svg" viewBox="0 0 37 37" id="profileBackBtn">
    <circle cx="18.5" cy="18.5" r="18.5" fill="#006AFD"></circle>
    <path d="M23.529 9.122l-.313 18.184-15.591-9.363 15.904-8.821z" fill="#fff"></path>
  </symbol>
  <symbol xmlns="http://www.w3.org/2000/svg" viewBox="0 0 48 48" id="chevronDown">
    <path fill="#fff" fill-opacity=".01" d="M0 0h48v48H0z"></path>
    <path d="M37 18L25 30 13 18" stroke="#000" stroke-width="4" stroke-linecap="round" stroke-linejoin="round"></path>
  </symbol>
  <symbol xmlns="http://www.w3.org/2000/svg" viewBox="0 0 511.999 511.999" id="pipetteMono">
    <path d="M443.017 33.948a8.255 8.255 0 00-11.67 0l-18.67 18.67a8.252 8.252 0 0011.67 11.669l18.67-18.67a8.252 8.252 0 000-11.669z"></path>
    <path d="M486.576 15.279c-20.374-20.371-53.523-20.371-73.898 0l-31.504 31.504-25.28-25.281a8.254 8.254 0 00-11.669 0l-31.116 31.116a8.25 8.25 0 000 11.668l25.281 25.282-45.606 45.605H213.58a8.25 8.25 0 00-8.251 8.251v79.204l-30.645 30.645v-109.85a8.25 8.25 0 00-8.251-8.251H18.394a8.25 8.25 0 00-8.251 8.251v157.91a8.25 8.25 0 008.251 8.251h113.583l-18.121 28.005H18.394a8.25 8.25 0 00-8.251 8.251v157.91a8.25 8.25 0 008.251 8.251h148.04a8.25 8.25 0 008.251-8.251V381.26l30.645-19.829v142.318a8.25 8.25 0 008.251 8.251h148.041a8.25 8.25 0 008.251-8.251V345.84a8.25 8.25 0 00-8.251-8.251H238.167l28.005-28.005h95.449a8.25 8.25 0 008.251-8.251v-95.449l42.418-42.419 25.281 25.281a8.255 8.255 0 0011.67-.001l31.114-31.116a8.252 8.252 0 000-11.669l-25.279-25.279 31.503-31.504c20.371-20.373 20.371-53.523-.003-73.898zM221.831 151.674h54.452l-54.452 54.452v-54.452zM26.644 293.083v-141.41h131.538v118.101l-.65.65a8.25 8.25 0 00-1.091 1.352l-13.787 21.306H26.644zM158.184 495.5H26.644V354.091h76.535l-15.191 23.478a8.254 8.254 0 001.092 10.317l24.892 24.892a8.245 8.245 0 005.838 2.416 8.237 8.237 0 004.478-1.323l33.895-21.931V495.5zM353.37 354.091v141.408H221.831V354.091H353.37zm0-61.008h-70.697l70.697-70.697v70.697zm2.416-96.451l-98.867 98.867-36.536 36.537-10.628 6.877c-.072.046-.135.099-.205.147-.037.026-.08.045-.118.071-.048.029-.091.065-.14.094-.064.04-.131.072-.194.112l-47.146 30.505-41.028 26.547-15.46-15.457 19.806-30.611 28.798-44.506 15.751-24.342 2.448-2.448 47.146-47.145 82.622-82.622 48.021-48.021 50.561 50.56-44.831 44.835zm107.064-44.835l-19.445 19.448-25.282-25.282-62.23-62.229-.011-.01-25.27-25.271 19.447-19.447 25.28 25.281 62.231 62.231 25.28 25.279zm12.059-74.285l-31.502 31.503-50.562-50.562 31.503-31.504c13.941-13.94 36.623-13.939 50.562-.001 13.938 13.939 13.938 36.623-.001 50.564z"></path>
    <path d="M225.21 251.755a8.25 8.25 0 00-11.669 0l-24.892 24.893a8.25 8.25 0 005.835 14.085 8.226 8.226 0 005.835-2.417l24.892-24.893a8.25 8.25 0 00-.001-11.668zM337.225 139.74a8.255 8.255 0 00-11.67 0l-87.121 87.122a8.252 8.252 0 0011.67 11.669l87.121-87.122a8.252 8.252 0 000-11.669z"></path>
  </symbol>
</svg>

