<svg width="0" height="0" class="hidden">
  <symbol xmlns="http://www.w3.org/2000/svg" viewBox="0 0 25 20" id="closeMenuIcon">
    <path d="M11.217 10.833l-1.56 1.457a.824.824 0 00-.198.257.875.875 0 00.102.94c.07.084.154.153.248.202a.744.744 0 00.877-.146l3.125-2.916a.833.833 0 00.197-.283.881.881 0 000-.688.832.832 0 00-.197-.283l-3.125-2.916a.776.776 0 00-.265-.176.737.737 0 00-.612.03.789.789 0 00-.248.202.886.886 0 00-.102.94c.05.1.117.186.199.257l1.56 1.457h-5.75a.757.757 0 00-.552.244.862.862 0 00-.229.589c0 .221.083.433.23.59a.757.757 0 00.552.243h5.748z" fill="#fff"></path>
    <path d="M21.875 20a3.03 3.03 0 002.21-.976A3.45 3.45 0 0025 16.667V3.333a3.45 3.45 0 00-.915-2.357A3.03 3.03 0 0021.875 0H3.125a3.03 3.03 0 00-2.21.976A3.45 3.45 0 000 3.333v13.334c0 .884.33 1.732.915 2.357a3.03 3.03 0 002.21.976h18.75zm1.563-3.333c0 .442-.165.866-.458 1.178-.293.313-.69.488-1.105.488h-4.688V1.667h4.688c.414 0 .812.175 1.105.488.293.312.457.736.457 1.178v13.334zm-7.813-15v16.666h-12.5c-.414 0-.812-.175-1.105-.488a1.725 1.725 0 01-.458-1.178V3.333c0-.442.165-.866.458-1.178.293-.313.69-.488 1.105-.488h12.5z" fill="#fff"></path>
  </symbol>
  <symbol xmlns="http://www.w3.org/2000/svg" viewBox="0 0 20 20" id="menuLeftOpen">
    <path d="M7.4 8.011h12c.11 0 .2-.102.2-.227v-1.59c0-.126-.09-.228-.2-.228h-12c-.11 0-.2.102-.2.227v1.591c0 .125.09.227.2.227zm-.2 5.796c0 .125.09.227.2.227h12c.11 0 .2-.102.2-.227v-1.591c0-.125-.09-.227-.2-.227h-12c-.11 0-.2.102-.2.227v1.59zM19.8 0H.2C.09 0 0 .102 0 .227v1.591c0 .125.09.227.2.227h19.6c.11 0 .2-.102.2-.227V.228C20 .101 19.91 0 19.8 0zm0 17.954H.2c-.11 0-.2.103-.2.228v1.59c0 .126.09.228.2.228h19.6c.11 0 .2-.102.2-.227v-1.591c0-.125-.09-.227-.2-.227zM.085 10.197l3.908 3.497c.145.13.36.014.36-.196V6.503c0-.21-.213-.327-.36-.196L.085 9.804a.245.245 0 00-.062.087.277.277 0 000 .218.244.244 0 00.062.087z" fill="#fff"></path>
  </symbol>
</svg>